<?xml version="1.0" encoding="us-ascii" standalone="no"?><svg xmlns="http://www.w3.org/2000/svg" xmlns:xlink="http://www.w3.org/1999/xlink" contentStyleType="text/css" height="242px" preserveAspectRatio="none" style="width:352px;height:242px;background:#FFFFFF;" version="1.1" viewBox="0 0 352 242" width="352px" zoomAndPan="magnify"><defs/><g><g id="elem_telematicsSystem_0"><rect fill="#F1F1F1" height="36.4883" style="stroke:#181818;stroke-width:0.5;" width="131" x="101" y="7"/><text fill="#000000" font-family="sans-serif" font-size="14" lengthAdjust="spacing" textLength="117" x="108" y="22.5352">telematicsSystem</text><line style="stroke:#181818;stroke-width:0.5;" x1="102" x2="231" y1="27.4883" y2="27.4883"/></g><g id="elem_channel_0"><rect fill="#F1F1F1" height="36.4883" style="stroke:#181818;stroke-width:0.5;" width="68" x="14.5" y="103.48"/><text fill="#000000" font-family="sans-serif" font-size="14" lengthAdjust="spacing" textLength="54" x="21.5" y="119.0152">channel</text><line style="stroke:#181818;stroke-width:0.5;" x1="15.5" x2="81.5" y1="123.9683" y2="123.9683"/></g><g id="elem_single_0"><rect fill="#F1F1F1" height="36.4883" style="stroke:#181818;stroke-width:0.5;" width="55" x="7" y="199.97"/><text fill="#000000" font-family="sans-serif" font-size="14" lengthAdjust="spacing" textLength="41" x="14" y="215.5052">single</text><line style="stroke:#181818;stroke-width:0.5;" x1="8" x2="61" y1="220.4583" y2="220.4583"/></g><g id="elem_dual_0"><rect fill="#F1F1F1" height="36.4883" style="stroke:#181818;stroke-width:0.5;" width="44" x="97.5" y="199.97"/><text fill="#000000" font-family="sans-serif" font-size="14" lengthAdjust="spacing" textLength="30" x="104.5" y="215.5052">dual</text><line style="stroke:#181818;stroke-width:0.5;" x1="98.5" x2="140.5" y1="220.4583" y2="220.4583"/></g><g id="elem_extraDisplay_0"><rect fill="#F1F1F1" height="36.4883" style="stroke:#181818;stroke-width:0.5;" width="99" x="117" y="103.48"/><text fill="#000000" font-family="sans-serif" font-size="14" lengthAdjust="spacing" textLength="85" x="124" y="119.0152">extraDisplay</text><line style="stroke:#181818;stroke-width:0.5;" x1="118" x2="215" y1="123.9683" y2="123.9683"/></g><g id="elem_size_0"><rect fill="#F1F1F1" height="36.4883" style="stroke:#181818;stroke-width:0.5;" width="41" x="251" y="103.48"/><text fill="#000000" font-family="sans-serif" font-size="14" lengthAdjust="spacing" textLength="27" x="258" y="119.0152">size</text><line style="stroke:#181818;stroke-width:0.5;" x1="252" x2="291" y1="123.9683" y2="123.9683"/></g><g id="elem_small_0"><rect fill="#F1F1F1" height="36.4883" style="stroke:#181818;stroke-width:0.5;" width="50" x="211.5" y="199.97"/><text fill="#000000" font-family="sans-serif" font-size="14" lengthAdjust="spacing" textLength="36" x="218.5" y="215.5052">small</text><line style="stroke:#181818;stroke-width:0.5;" x1="212.5" x2="260.5" y1="220.4583" y2="220.4583"/></g><g id="elem_large_0"><rect fill="#F1F1F1" height="36.4883" style="stroke:#181818;stroke-width:0.5;" width="49" x="297" y="199.97"/><text fill="#000000" font-family="sans-serif" font-size="14" lengthAdjust="spacing" textLength="35" x="304" y="215.5052">large</text><line style="stroke:#181818;stroke-width:0.5;" x1="298" x2="345" y1="220.4583" y2="220.4583"/></g><!--link telematicsSystem_0 to channel_0--><g id="link_telematicsSystem_0_channel_0"><path codeLine="11" d="M144.58,43.79 C123.39,60.76 100.8278,78.8304 79.6678,95.7704 " fill="none" id="telematicsSystem_0-to-channel_0" style="stroke:#181818;stroke-width:1.0;"/><polygon fill="#181818" points="70.3,103.27,77.4838,102.6428,79.6678,95.7704,72.4841,96.3976,70.3,103.27" style="stroke:#181818;stroke-width:1.0;"/></g><!--reverse link channel_0 to single_0--><g id="link_channel_0_single_0"><path codeLine="12" d="M43.5849,155.8872 C41.0749,172.8272 39.62,182.66 37.1,199.68 " fill="none" id="channel_0-backto-single_0" style="stroke:#181818;stroke-width:1.0;"/><ellipse cx="44.7574" cy="147.9736" fill="#FFFFFF" rx="8" ry="8" style="stroke:#181818;stroke-width:1.0;"/><line style="stroke:#181818;stroke-width:1.0;" x1="43.5849" x2="45.93" y1="155.8872" y2="140.06"/><line style="stroke:#181818;stroke-width:1.0;" x1="36.8438" x2="52.671" y1="146.801" y2="149.1462"/></g><!--reverse link channel_0 to dual_0--><g id="link_channel_0_dual_0"><path codeLine="13" d="M71.1321,152.8509 C83.8621,169.7909 93.54,182.66 106.32,199.68 " fill="none" id="channel_0-backto-dual_0" style="stroke:#181818;stroke-width:1.0;"/><ellipse cx="66.326" cy="146.4555" fill="#FFFFFF" rx="8" ry="8" style="stroke:#181818;stroke-width:1.0;"/><line style="stroke:#181818;stroke-width:1.0;" x1="71.1321" x2="61.52" y1="152.8509" y2="140.06"/><line style="stroke:#181818;stroke-width:1.0;" x1="59.9306" x2="72.7215" y1="151.2615" y2="141.6494"/></g><!--link telematicsSystem_0 to extraDisplay_0--><g id="link_telematicsSystem_0_extraDisplay_0"><path codeLine="14" d="M166.5,43.57 C166.5,60.51 166.5,74.17 166.5,91.19 " fill="none" id="telematicsSystem_0-to-extraDisplay_0" style="stroke:#181818;stroke-width:1.0;"/><polygon fill="none" points="166.5,103.19,170.5,97.19,166.5,91.19,162.5,97.19,166.5,103.19" style="stroke:#181818;stroke-width:1.0;"/></g><!--link telematicsSystem_0 to size_0--><g id="link_telematicsSystem_0_size_0"><path codeLine="15" d="M185.76,43.57 C204.59,60.51 224.1807,78.1422 243.0907,95.1622 " fill="none" id="telematicsSystem_0-to-size_0" style="stroke:#181818;stroke-width:1.0;"/><polygon fill="#181818" points="252.01,103.19,250.2263,96.203,243.0907,95.1622,244.8744,102.1492,252.01,103.19" style="stroke:#181818;stroke-width:1.0;"/></g><!--reverse link size_0 to small_0--><g id="link_size_0_small_0"><path codeLine="16" d="M259.5184,155.0623 C253.2384,172.0023 249.3,182.66 243,199.68 " fill="none" id="size_0-backto-small_0" style="stroke:#181818;stroke-width:1.0;"/><ellipse cx="262.2992" cy="147.5611" fill="#FFFFFF" rx="8" ry="8" style="stroke:#181818;stroke-width:1.0;"/><line style="stroke:#181818;stroke-width:1.0;" x1="259.5184" x2="265.08" y1="155.0623" y2="140.06"/><line style="stroke:#181818;stroke-width:1.0;" x1="254.798" x2="269.8003" y1="144.7803" y2="150.342"/></g><!--reverse link size_0 to large_0--><g id="link_size_0_large_0"><path codeLine="17" d="M288.1574,154.2 C297.1274,171.14 303.21,182.66 312.22,199.68 " fill="none" id="size_0-backto-large_0" style="stroke:#181818;stroke-width:1.0;"/><ellipse cx="284.4137" cy="147.13" fill="#FFFFFF" rx="8" ry="8" style="stroke:#181818;stroke-width:1.0;"/><line style="stroke:#181818;stroke-width:1.0;" x1="288.1574" x2="280.67" y1="154.2" y2="140.06"/><line style="stroke:#181818;stroke-width:1.0;" x1="277.3437" x2="291.4837" y1="150.8737" y2="143.3863"/></g><!--SRC=[TOzH2i8m38RVFKNOerBm4Dx00qYiOLRIJjOARgVVR6PfDdtxoPVyuGFehW-o2Pf4J1wJi_4yn4I-0Oom7bwEEoWNzeuX4EV59IiUNMYPCfQewEs5Sle9Yj0xzNXoySauv8rwiFemVlj7tHuzijJdf1XZtyfPJZERuTOKZDahhvBXO4ojf47n-LdPRMt-l2vE4kHfaQc6YyK4]--></g></svg>